<?xml version="1.0" encoding="UTF-8"?>
<svg width="240.4px" height="160.998473px" viewBox="0 0 240.4 160.998473" version="1.1" xmlns="http://www.w3.org/2000/svg" xmlns:xlink="http://www.w3.org/1999/xlink">
    <title>路径</title>
    <g id="页面-1" stroke="none" stroke-width="1" fill="none" fill-rule="evenodd">
        <g id="menu-bottom-bg.8f4bcc4e" transform="translate(0, 0)" fill="#9C2831" fill-rule="nonzero">
            <path d="M240.4,12.6984726 C240.4,62.0984726 240.4,111.398473 240.4,160.998473 C160.4,160.998473 80,160.898473 0,160.898473 C0.1,158.898473 0.2,156.898473 0.2,154.898473 C0.2,109.498473 0,63.7984726 0.1,18.3984726 C0.1,16.4984726 0.3,14.5984726 0.5,12.1984726 C2.8,13.1984726 5,14.2984726 6.4,14.9984726 C29.4,27.0984726 53.9,30.0984726 79.1,24.9984726 C98.6,21.0984726 117.8,15.4984726 137,10.1984726 C159.8,3.99847255 182.6,-2.40152745 206.6,0.898472553 C218.5,2.49847255 230.4,5.09847255 240.4,12.6984726 Z" id="路径"></path>
        </g>
    </g>
</svg>